<mxfile host="app.diagrams.net" agent="Mozilla/5.0 (Windows NT 10.0; Win64; x64) AppleWebKit/537.36 (KHTML, like Gecko) Chrome/131.0.0.0 Safari/537.36" version="26.0.2">
  <diagram name="Page-1" id="n6l_h-zKz5RpCcbzB9tI">
    <mxGraphModel dx="1909" dy="1013" grid="1" gridSize="10" guides="1" tooltips="1" connect="1" arrows="1" fold="1" page="1" pageScale="1" pageWidth="850" pageHeight="1100" math="0" shadow="0">
      <root>
        <mxCell id="0" />
        <mxCell id="1" parent="0" />
        <mxCell id="GRuvRH0FvKFXy1umth4d-1" value="&lt;b&gt;&lt;i&gt;&lt;font style=&quot;font-size: 15px;&quot; face=&quot;Comic Sans MS&quot;&gt;MINI C COMPILER&amp;nbsp;&lt;/font&gt;&lt;/i&gt;&lt;/b&gt;" style="rounded=0;whiteSpace=wrap;html=1;" vertex="1" parent="1">
          <mxGeometry x="350" y="30" width="150" height="100" as="geometry" />
        </mxCell>
        <mxCell id="GRuvRH0FvKFXy1umth4d-2" value="&lt;font face=&quot;Comic Sans MS&quot;&gt;USER INPUT&lt;/font&gt;" style="rounded=0;whiteSpace=wrap;html=1;" vertex="1" parent="1">
          <mxGeometry x="103" y="40" width="90" height="50" as="geometry" />
        </mxCell>
        <mxCell id="GRuvRH0FvKFXy1umth4d-10" value="start compilation&amp;nbsp;" style="shape=process;whiteSpace=wrap;html=1;backgroundOutline=1;" vertex="1" parent="1">
          <mxGeometry x="260" y="200" width="120" height="70" as="geometry" />
        </mxCell>
        <mxCell id="GRuvRH0FvKFXy1umth4d-12" value="compilation completed&amp;nbsp;" style="shape=process;whiteSpace=wrap;html=1;backgroundOutline=1;" vertex="1" parent="1">
          <mxGeometry x="103" y="1020" width="410" height="60" as="geometry" />
        </mxCell>
        <mxCell id="GRuvRH0FvKFXy1umth4d-13" value="" style="endArrow=classic;html=1;rounded=0;exitX=0.5;exitY=1;exitDx=0;exitDy=0;entryX=0.105;entryY=-0.133;entryDx=0;entryDy=0;entryPerimeter=0;" edge="1" parent="1" source="GRuvRH0FvKFXy1umth4d-2" target="GRuvRH0FvKFXy1umth4d-12">
          <mxGeometry width="50" height="50" relative="1" as="geometry">
            <mxPoint x="400" y="260" as="sourcePoint" />
            <mxPoint x="150" y="594" as="targetPoint" />
          </mxGeometry>
        </mxCell>
        <mxCell id="GRuvRH0FvKFXy1umth4d-14" value="" style="endArrow=none;html=1;rounded=0;entryX=0.059;entryY=1.046;entryDx=0;entryDy=0;entryPerimeter=0;exitX=0.843;exitY=-0.031;exitDx=0;exitDy=0;exitPerimeter=0;" edge="1" parent="1" source="GRuvRH0FvKFXy1umth4d-10" target="GRuvRH0FvKFXy1umth4d-1">
          <mxGeometry width="50" height="50" relative="1" as="geometry">
            <mxPoint x="400" y="220" as="sourcePoint" />
            <mxPoint x="450" y="170" as="targetPoint" />
          </mxGeometry>
        </mxCell>
        <mxCell id="GRuvRH0FvKFXy1umth4d-15" value="" style="endArrow=classic;html=1;rounded=0;exitX=0.863;exitY=1.089;exitDx=0;exitDy=0;exitPerimeter=0;entryX=0.628;entryY=0.011;entryDx=0;entryDy=0;entryPerimeter=0;" edge="1" parent="1" source="GRuvRH0FvKFXy1umth4d-10" target="GRuvRH0FvKFXy1umth4d-12">
          <mxGeometry width="50" height="50" relative="1" as="geometry">
            <mxPoint x="400" y="390" as="sourcePoint" />
            <mxPoint x="360" y="840" as="targetPoint" />
          </mxGeometry>
        </mxCell>
        <mxCell id="GRuvRH0FvKFXy1umth4d-16" value="tokenize input&amp;nbsp;" style="rounded=0;whiteSpace=wrap;html=1;" vertex="1" parent="1">
          <mxGeometry x="280" y="310" width="100" height="40" as="geometry" />
        </mxCell>
        <mxCell id="GRuvRH0FvKFXy1umth4d-17" value="" style="endArrow=classic;html=1;rounded=0;entryX=0;entryY=0.75;entryDx=0;entryDy=0;" edge="1" parent="1" target="GRuvRH0FvKFXy1umth4d-16">
          <mxGeometry width="50" height="50" relative="1" as="geometry">
            <mxPoint x="150" y="340" as="sourcePoint" />
            <mxPoint x="430" y="400" as="targetPoint" />
          </mxGeometry>
        </mxCell>
        <mxCell id="GRuvRH0FvKFXy1umth4d-18" value="lexical analyzer&amp;nbsp;" style="rounded=1;whiteSpace=wrap;html=1;" vertex="1" parent="1">
          <mxGeometry x="430" y="350" width="100" height="30" as="geometry" />
        </mxCell>
        <mxCell id="GRuvRH0FvKFXy1umth4d-19" value="syntax analyzer&amp;nbsp;" style="rounded=1;whiteSpace=wrap;html=1;" vertex="1" parent="1">
          <mxGeometry x="430" y="470" width="90" height="30" as="geometry" />
        </mxCell>
        <mxCell id="GRuvRH0FvKFXy1umth4d-20" value="semantic analyzer&amp;nbsp;" style="rounded=0;whiteSpace=wrap;html=1;" vertex="1" parent="1">
          <mxGeometry x="425" y="600" width="120" height="30" as="geometry" />
        </mxCell>
        <mxCell id="GRuvRH0FvKFXy1umth4d-21" value="intermiediate code generator&amp;nbsp;" style="rounded=0;whiteSpace=wrap;html=1;" vertex="1" parent="1">
          <mxGeometry x="410" y="700" width="190" height="30" as="geometry" />
        </mxCell>
        <mxCell id="GRuvRH0FvKFXy1umth4d-22" value="code optimizer" style="rounded=0;whiteSpace=wrap;html=1;" vertex="1" parent="1">
          <mxGeometry x="430" y="800" width="110" height="30" as="geometry" />
        </mxCell>
        <mxCell id="GRuvRH0FvKFXy1umth4d-24" value="code generator&amp;nbsp;" style="rounded=0;whiteSpace=wrap;html=1;" vertex="1" parent="1">
          <mxGeometry x="410" y="890" width="150" height="30" as="geometry" />
        </mxCell>
        <mxCell id="GRuvRH0FvKFXy1umth4d-26" value="" style="endArrow=classic;html=1;rounded=0;exitX=0.5;exitY=1;exitDx=0;exitDy=0;" edge="1" parent="1" source="GRuvRH0FvKFXy1umth4d-18">
          <mxGeometry width="50" height="50" relative="1" as="geometry">
            <mxPoint x="400" y="420" as="sourcePoint" />
            <mxPoint x="370" y="440" as="targetPoint" />
            <Array as="points">
              <mxPoint x="480" y="440" />
            </Array>
          </mxGeometry>
        </mxCell>
        <mxCell id="GRuvRH0FvKFXy1umth4d-27" value="&lt;font style=&quot;font-size: 12px;&quot;&gt;provide tokens&amp;nbsp;&lt;/font&gt;" style="edgeLabel;html=1;align=center;verticalAlign=middle;resizable=0;points=[];" vertex="1" connectable="0" parent="GRuvRH0FvKFXy1umth4d-26">
          <mxGeometry x="-0.5554" y="-3" relative="1" as="geometry">
            <mxPoint x="-1" as="offset" />
          </mxGeometry>
        </mxCell>
        <mxCell id="GRuvRH0FvKFXy1umth4d-28" value="" style="endArrow=classic;html=1;rounded=0;entryX=0;entryY=0.75;entryDx=0;entryDy=0;" edge="1" parent="1" target="GRuvRH0FvKFXy1umth4d-18">
          <mxGeometry width="50" height="50" relative="1" as="geometry">
            <mxPoint x="370" y="373" as="sourcePoint" />
            <mxPoint x="280" y="610" as="targetPoint" />
          </mxGeometry>
        </mxCell>
        <mxCell id="GRuvRH0FvKFXy1umth4d-29" value="" style="endArrow=classic;html=1;rounded=0;entryX=0;entryY=0.5;entryDx=0;entryDy=0;" edge="1" parent="1" target="GRuvRH0FvKFXy1umth4d-21">
          <mxGeometry width="50" height="50" relative="1" as="geometry">
            <mxPoint x="360" y="714" as="sourcePoint" />
            <mxPoint x="390" y="714.1700000000001" as="targetPoint" />
          </mxGeometry>
        </mxCell>
        <mxCell id="GRuvRH0FvKFXy1umth4d-30" value="" style="endArrow=classic;html=1;rounded=0;entryX=0;entryY=0.75;entryDx=0;entryDy=0;" edge="1" parent="1">
          <mxGeometry width="50" height="50" relative="1" as="geometry">
            <mxPoint x="365" y="614.17" as="sourcePoint" />
            <mxPoint x="425" y="614.17" as="targetPoint" />
          </mxGeometry>
        </mxCell>
        <mxCell id="GRuvRH0FvKFXy1umth4d-31" value="" style="endArrow=classic;html=1;rounded=0;entryX=0;entryY=0.75;entryDx=0;entryDy=0;" edge="1" parent="1">
          <mxGeometry width="50" height="50" relative="1" as="geometry">
            <mxPoint x="365" y="484.17" as="sourcePoint" />
            <mxPoint x="425" y="484.17" as="targetPoint" />
          </mxGeometry>
        </mxCell>
        <mxCell id="GRuvRH0FvKFXy1umth4d-32" value="" style="endArrow=classic;html=1;rounded=0;entryX=0;entryY=0.5;entryDx=0;entryDy=0;" edge="1" parent="1" target="GRuvRH0FvKFXy1umth4d-24">
          <mxGeometry width="50" height="50" relative="1" as="geometry">
            <mxPoint x="360" y="905" as="sourcePoint" />
            <mxPoint x="470" y="413" as="targetPoint" />
          </mxGeometry>
        </mxCell>
        <mxCell id="GRuvRH0FvKFXy1umth4d-33" value="" style="endArrow=classic;html=1;rounded=0;entryX=0;entryY=0.5;entryDx=0;entryDy=0;" edge="1" parent="1" target="GRuvRH0FvKFXy1umth4d-22">
          <mxGeometry width="50" height="50" relative="1" as="geometry">
            <mxPoint x="365" y="814.1700000000001" as="sourcePoint" />
            <mxPoint x="425" y="814.1700000000001" as="targetPoint" />
          </mxGeometry>
        </mxCell>
        <mxCell id="GRuvRH0FvKFXy1umth4d-47" value="" style="endArrow=classic;html=1;rounded=0;exitX=0.5;exitY=1;exitDx=0;exitDy=0;" edge="1" parent="1" source="GRuvRH0FvKFXy1umth4d-19">
          <mxGeometry width="50" height="50" relative="1" as="geometry">
            <mxPoint x="190" y="790" as="sourcePoint" />
            <mxPoint x="360" y="570" as="targetPoint" />
            <Array as="points">
              <mxPoint x="475" y="570" />
            </Array>
          </mxGeometry>
        </mxCell>
        <mxCell id="GRuvRH0FvKFXy1umth4d-48" value="send parse tree" style="edgeLabel;html=1;align=center;verticalAlign=middle;resizable=0;points=[];" vertex="1" connectable="0" parent="GRuvRH0FvKFXy1umth4d-47">
          <mxGeometry x="-0.6324" y="-4" relative="1" as="geometry">
            <mxPoint y="1" as="offset" />
          </mxGeometry>
        </mxCell>
        <mxCell id="GRuvRH0FvKFXy1umth4d-49" value="" style="endArrow=classic;html=1;rounded=0;exitX=0.546;exitY=0.944;exitDx=0;exitDy=0;exitPerimeter=0;" edge="1" parent="1" source="GRuvRH0FvKFXy1umth4d-20">
          <mxGeometry width="50" height="50" relative="1" as="geometry">
            <mxPoint x="190" y="790" as="sourcePoint" />
            <mxPoint x="360" y="680" as="targetPoint" />
            <Array as="points">
              <mxPoint x="490" y="680" />
            </Array>
          </mxGeometry>
        </mxCell>
        <mxCell id="GRuvRH0FvKFXy1umth4d-50" value="&lt;font style=&quot;font-size: 12px;&quot;&gt;send annoted tree&lt;/font&gt;" style="edgeLabel;html=1;align=center;verticalAlign=middle;resizable=0;points=[];" vertex="1" connectable="0" parent="GRuvRH0FvKFXy1umth4d-49">
          <mxGeometry x="-0.7191" y="2" relative="1" as="geometry">
            <mxPoint y="1" as="offset" />
          </mxGeometry>
        </mxCell>
        <mxCell id="GRuvRH0FvKFXy1umth4d-51" value="" style="endArrow=classic;html=1;rounded=0;exitX=0.5;exitY=1;exitDx=0;exitDy=0;" edge="1" parent="1" source="GRuvRH0FvKFXy1umth4d-21">
          <mxGeometry width="50" height="50" relative="1" as="geometry">
            <mxPoint x="350" y="820" as="sourcePoint" />
            <mxPoint x="360" y="770" as="targetPoint" />
            <Array as="points">
              <mxPoint x="505" y="770" />
            </Array>
          </mxGeometry>
        </mxCell>
        <mxCell id="GRuvRH0FvKFXy1umth4d-54" value="Text" style="edgeLabel;html=1;align=center;verticalAlign=middle;resizable=0;points=[];" vertex="1" connectable="0" parent="GRuvRH0FvKFXy1umth4d-51">
          <mxGeometry x="-0.7755" relative="1" as="geometry">
            <mxPoint x="1" as="offset" />
          </mxGeometry>
        </mxCell>
        <mxCell id="GRuvRH0FvKFXy1umth4d-55" value="send intermediate code&amp;nbsp;" style="edgeLabel;html=1;align=center;verticalAlign=middle;resizable=0;points=[];" vertex="1" connectable="0" parent="GRuvRH0FvKFXy1umth4d-51">
          <mxGeometry x="-0.7755" relative="1" as="geometry">
            <mxPoint as="offset" />
          </mxGeometry>
        </mxCell>
        <mxCell id="GRuvRH0FvKFXy1umth4d-56" value="" style="endArrow=classic;html=1;rounded=0;exitX=0.606;exitY=1.026;exitDx=0;exitDy=0;exitPerimeter=0;" edge="1" parent="1" source="GRuvRH0FvKFXy1umth4d-22">
          <mxGeometry width="50" height="50" relative="1" as="geometry">
            <mxPoint x="330" y="940" as="sourcePoint" />
            <mxPoint x="360" y="860" as="targetPoint" />
            <Array as="points">
              <mxPoint x="497" y="860" />
            </Array>
          </mxGeometry>
        </mxCell>
        <mxCell id="GRuvRH0FvKFXy1umth4d-57" value="Text" style="edgeLabel;html=1;align=center;verticalAlign=middle;resizable=0;points=[];" vertex="1" connectable="0" parent="GRuvRH0FvKFXy1umth4d-56">
          <mxGeometry x="-0.856" y="-2" relative="1" as="geometry">
            <mxPoint as="offset" />
          </mxGeometry>
        </mxCell>
        <mxCell id="GRuvRH0FvKFXy1umth4d-58" value="Text" style="edgeLabel;html=1;align=center;verticalAlign=middle;resizable=0;points=[];" vertex="1" connectable="0" parent="GRuvRH0FvKFXy1umth4d-56">
          <mxGeometry x="-0.856" y="-2" relative="1" as="geometry">
            <mxPoint as="offset" />
          </mxGeometry>
        </mxCell>
        <mxCell id="GRuvRH0FvKFXy1umth4d-59" value="send optimized code&amp;nbsp;" style="edgeLabel;html=1;align=center;verticalAlign=middle;resizable=0;points=[];" vertex="1" connectable="0" parent="GRuvRH0FvKFXy1umth4d-56">
          <mxGeometry x="-0.856" y="-2" relative="1" as="geometry">
            <mxPoint as="offset" />
          </mxGeometry>
        </mxCell>
        <mxCell id="GRuvRH0FvKFXy1umth4d-60" value="" style="endArrow=classic;html=1;rounded=0;exitX=0.536;exitY=1.041;exitDx=0;exitDy=0;exitPerimeter=0;" edge="1" parent="1" source="GRuvRH0FvKFXy1umth4d-24">
          <mxGeometry width="50" height="50" relative="1" as="geometry">
            <mxPoint x="330" y="1030" as="sourcePoint" />
            <mxPoint x="360" y="960" as="targetPoint" />
            <Array as="points">
              <mxPoint x="490" y="960" />
            </Array>
          </mxGeometry>
        </mxCell>
        <mxCell id="GRuvRH0FvKFXy1umth4d-61" value="return machine code&amp;nbsp;" style="edgeLabel;html=1;align=center;verticalAlign=middle;resizable=0;points=[];" vertex="1" connectable="0" parent="GRuvRH0FvKFXy1umth4d-60">
          <mxGeometry x="-0.7543" y="3" relative="1" as="geometry">
            <mxPoint as="offset" />
          </mxGeometry>
        </mxCell>
      </root>
    </mxGraphModel>
  </diagram>
</mxfile>
